<?xml version="1.0" standalone="no"?>
<!DOCTYPE svg PUBLIC "-//W3C//DTD SVG 20010904//EN"
 "http://www.w3.org/TR/2001/REC-SVG-20010904/DTD/svg10.dtd">
<svg version="1.0" xmlns="http://www.w3.org/2000/svg"
 width="512.000000pt" height="512.000000pt" viewBox="0 0 512.000000 512.000000"
 preserveAspectRatio="xMidYMid meet">

<g transform="translate(0.000000,512.000000) scale(0.100000,-0.100000)"
fill="#000000" stroke="none">
<path d="M930 4947 c-37 -19 -50 -54 -50 -138 0 -105 -14 -109 -95 -29 -97 96
-91 98 -317 -128 -226 -226 -224 -220 -128 -317 81 -82 76 -92 -40 -97 -77 -3
-93 -6 -112 -26 -23 -22 -23 -25 -23 -292 0 -267 0 -270 23 -292 19 -20 35
-23 112 -26 116 -5 121 -15 40 -97 -96 -97 -98 -91 128 -317 226 -226 220
-224 317 -128 82 81 92 76 97 -40 3 -77 6 -93 26 -112 22 -23 25 -23 292 -23
267 0 270 0 292 23 20 19 23 35 26 112 5 116 15 121 97 40 89 -89 101 -87 229
40 l102 100 1482 2 1481 3 23 23 23 23 0 669 0 669 -23 23 -23 23 -1481 3
-1482 2 -102 100 c-128 127 -140 129 -229 40 -82 -81 -92 -76 -97 40 -5 141 9
134 -306 138 -194 2 -263 -1 -282 -11z m430 -207 c0 -90 15 -111 107 -150 108
-46 123 -44 189 21 l54 54 117 -118 118 -117 -54 -54 c-65 -66 -67 -81 -21
-190 39 -91 61 -106 155 -106 l55 0 0 -160 0 -160 -62 0 c-90 0 -106 -12 -147
-105 -47 -110 -45 -125 20 -191 l54 -54 -118 -117 -117 -118 -54 54 c-66 65
-81 67 -191 20 -93 -41 -105 -57 -105 -146 l0 -63 -160 0 -160 0 0 63 c0 90
-12 106 -105 145 -122 52 -116 52 -185 -14 l-61 -58 -116 117 -117 116 58 61
c66 69 66 63 14 185 -39 93 -55 105 -145 105 l-63 0 0 160 0 160 63 0 c92 0
106 11 149 115 21 51 34 99 31 110 -3 11 -28 44 -56 73 l-52 52 118 117 117
118 54 -54 c66 -65 81 -67 190 -21 91 39 106 61 106 155 l0 55 160 0 160 0 0
-60z m3440 -820 l0 -560 -1344 0 -1344 0 5 43 c4 40 2 44 -55 101 -83 81 -78
93 39 98 76 3 92 6 111 26 23 22 23 25 23 292 0 267 0 270 -23 292 -19 20 -35
23 -111 26 -117 5 -122 17 -39 98 57 57 59 61 55 102 l-5 42 1344 0 1344 0 0
-560z"/>
<path d="M1125 4389 c-142 -20 -283 -126 -349 -261 -116 -236 -20 -516 216
-632 403 -198 830 229 632 632 -92 187 -290 291 -499 261z m205 -175 c73 -34
126 -86 161 -159 24 -50 29 -73 29 -135 0 -62 -5 -85 -29 -135 -57 -119 -161
-185 -291 -185 -130 0 -234 66 -291 185 -24 50 -29 73 -29 135 0 130 66 234
185 291 82 40 184 41 265 3z"/>
<path d="M2700 4313 c-8 -3 -59 -49 -112 -101 -88 -87 -98 -100 -98 -133 0
-22 7 -42 18 -52 26 -24 81 -21 109 5 l23 21 0 -185 0 -186 -56 -4 c-38 -3
-62 -11 -76 -26 -28 -28 -28 -77 1 -105 21 -21 29 -22 211 -22 182 0 190 1
211 22 29 28 29 77 1 105 -14 15 -38 23 -76 26 l-55 4 -3 294 c-3 278 -4 294
-23 313 -23 22 -53 32 -75 24z"/>
<path d="M3490 4307 c-38 -19 -54 -60 -38 -94 25 -53 23 -53 560 -51 497 3
497 3 519 25 14 13 22 34 22 53 0 19 -8 40 -22 53 -22 22 -22 22 -519 25 -388
1 -502 -1 -522 -11z"/>
<path d="M3090 3987 c-38 -19 -54 -60 -38 -94 26 -54 8 -53 760 -50 l697 2 22
22 c14 13 22 34 22 53 0 19 -8 40 -22 53 l-22 22 -697 2 c-549 2 -702 0 -722
-10z"/>
<path d="M3250 3667 c-38 -19 -54 -60 -38 -94 26 -54 14 -53 680 -50 l617 2
22 22 c14 13 22 34 22 53 0 19 -8 40 -22 53 l-22 22 -617 2 c-485 2 -622 0
-642 -10z"/>
<path d="M4530 3027 c-48 -24 -50 -40 -50 -384 l0 -323 -107 0 -106 0 23 25
c47 50 17 128 -50 128 -27 0 -48 -16 -132 -101 -134 -133 -134 -130 -2 -263
89 -89 102 -99 135 -99 22 0 42 7 52 18 24 27 22 85 -4 108 -21 19 -19 19 140
24 150 5 162 6 183 28 l23 23 0 389 c0 376 -1 390 -20 409 -28 27 -56 33 -85
18z"/>
<path d="M850 2707 c-51 -26 -50 -15 -47 -719 l2 -657 23 -23 23 -23 494 -3
494 -3 3 -534 3 -534 23 -23 23 -23 1469 0 1469 0 23 23 23 23 0 669 0 669
-23 23 -23 23 -494 3 -494 3 -3 534 -3 534 -23 23 -23 23 -1457 2 c-1156 2
-1462 0 -1482 -10z m2830 -627 l0 -480 -891 0 -891 0 -29 -29 c-24 -25 -29
-37 -29 -80 l0 -51 -440 0 -440 0 0 560 0 560 1360 0 1360 0 0 -480z m1040
-1200 l0 -560 -1360 0 -1360 0 0 560 0 560 1360 0 1360 0 0 -560z"/>
<path d="M1367 2384 c-67 -21 -131 -86 -151 -155 -21 -70 -20 -83 7 -115 47
-54 122 -27 133 48 12 72 96 104 142 55 12 -13 22 -26 22 -30 0 -4 -70 -112
-155 -240 -84 -127 -157 -244 -161 -259 -5 -22 0 -33 25 -58 l31 -31 185 3
c174 3 186 4 206 25 29 29 29 77 0 106 -18 19 -36 23 -121 27 l-100 5 125 188
c69 104 125 196 125 206 0 50 -34 125 -75 166 -30 30 -59 49 -96 59 -63 19
-79 19 -142 0z"/>
<path d="M2349 2291 c-35 -36 -37 -61 -5 -98 l24 -28 511 0 510 0 22 22 c32
31 30 80 -5 110 l-27 23 -500 0 -501 0 -29 -29z"/>
<path d="M1949 1971 c-35 -36 -37 -61 -5 -98 l24 -28 711 0 710 0 22 22 c32
31 30 80 -5 110 l-27 23 -700 0 -701 0 -29 -29z"/>
<path d="M2497 1266 c-94 -26 -167 -115 -170 -209 -2 -56 25 -90 72 -90 40 0
69 27 77 72 9 52 40 81 84 81 48 0 80 -33 80 -81 0 -43 -30 -74 -81 -83 -45
-8 -72 -37 -72 -76 0 -39 27 -68 72 -76 52 -9 81 -40 81 -84 0 -48 -33 -80
-81 -80 -43 0 -74 30 -83 81 -8 45 -37 72 -77 72 -47 0 -74 -33 -71 -90 6
-139 143 -242 282 -212 150 32 228 202 156 340 l-25 49 25 49 c30 57 35 145
12 201 -46 109 -167 167 -281 136z"/>
<path d="M3410 1267 c-38 -19 -54 -60 -38 -94 25 -53 23 -53 560 -51 497 3
497 3 519 25 14 13 22 34 22 53 0 19 -8 40 -22 53 -22 22 -22 22 -519 25 -388
1 -502 -1 -522 -11z"/>
<path d="M3090 947 c-38 -19 -54 -60 -38 -94 26 -54 11 -53 720 -50 l657 2 22
22 c29 29 29 77 0 106 l-22 22 -657 2 c-517 2 -662 0 -682 -10z"/>
<path d="M3090 627 c-38 -19 -54 -60 -38 -94 26 -54 11 -53 720 -50 l657 2 22
22 c29 29 29 77 0 106 l-22 22 -657 2 c-517 2 -662 0 -682 -10z"/>
<path d="M210 2147 c-51 -26 -50 -15 -47 -719 l2 -657 23 -23 23 -23 401 -3
401 -3 -21 -22 c-11 -12 -24 -34 -27 -49 -6 -22 -1 -33 24 -59 46 -45 69 -35
185 81 132 131 132 129 0 261 -89 89 -102 99 -135 99 -22 0 -42 -7 -52 -18
-24 -26 -21 -81 5 -109 l21 -23 -346 0 -347 0 0 559 0 559 135 4 c123 3 136 5
156 25 29 29 29 77 0 106 -20 21 -31 22 -199 25 -129 2 -184 -1 -202 -11z"/>
</g>
</svg>
