<svg id="Layer_1" enable-background="new 0 0 512 512" height="512" viewBox="0 0 512 512" width="512" xmlns="http://www.w3.org/2000/svg"><g><g clip-rule="evenodd" fill-rule="evenodd"><path d="m116.83 152.85h30.35c2.24 0 4.13 1.89 4.13 4.25v5.2c0 5.2 3.19 9.57 8.15 11.34 3.43 1.06 6.73 2.48 9.92 4.02 4.72 2.36 10.04 1.42 13.7-2.24l3.66-3.66c1.65-1.65 4.37-1.65 6.02 0l21.5 21.5c1.54 1.65 1.54 4.25 0 5.91l-3.66 3.66c-3.78 3.78-4.61 9.09-2.36 13.82 1.65 3.19 2.95 6.5 4.13 9.92 1.65 4.96 6.14 8.03 11.34 8.03h5.2c2.24 0 4.25 1.89 4.25 4.25v30.35c0 2.36-2.01 4.25-4.25 4.25h-5.2c-5.2 0-9.69 3.19-11.34 8.03-1.18 3.43-2.48 6.73-4.13 9.92-2.24 4.72-1.42 10.16 2.36 13.82l3.54 3.66c1.65 1.65 1.65 4.25 0 5.91l-21.38 21.5c-1.65 1.65-4.37 1.65-6.02 0l-3.66-3.66c-3.66-3.66-9.09-4.61-13.7-2.24-3.19 1.54-6.5 2.95-9.92 4.13-4.96 1.65-8.15 6.02-8.15 11.22v5.2c0 2.36-1.89 4.25-4.13 4.25h-30.35c-2.36 0-4.25-1.89-4.25-4.25v-5.2c0-5.2-3.19-9.57-8.15-11.22-3.43-1.18-6.73-2.6-9.92-4.13-4.61-2.36-10.04-1.42-13.7 2.24l-3.66 3.66c-1.65 1.65-4.37 1.65-6.02 0l-21.38-21.5c-1.65-1.65-1.65-4.25 0-5.91l3.66-3.66c3.66-3.66 4.49-9.09 2.24-13.82-1.54-3.19-2.95-6.5-4.13-9.92-1.65-4.84-6.14-8.03-11.34-8.03h-5.2c-2.24 0-4.13-1.89-4.13-4.25v-30.35c0-2.36 1.89-4.25 4.13-4.25h5.2c5.2 0 9.69-3.07 11.34-8.03 1.18-3.43 2.6-6.73 4.13-9.92 2.24-4.72 1.42-10.04-2.24-13.82l-3.66-3.66c-1.65-1.65-1.65-4.25 0-5.91l21.38-21.5c1.65-1.65 4.37-1.65 6.02 0l3.66 3.66c3.66 3.66 9.09 4.61 13.7 2.24 3.19-1.54 6.5-2.95 9.92-4.02 4.96-1.77 8.15-6.14 8.15-11.34v-5.2c0-2.36 1.89-4.25 4.25-4.25z" fill="#88a6ba"/><path d="m417.89 190.53c35.08 0 63.43 28.46 63.43 63.54 0 34.96-28.35 63.43-63.43 63.43s-63.43-28.46-63.43-63.43c.01-35.08 28.35-63.54 63.43-63.54z" fill="#ffcd6a"/><path d="m417.89 24.35c35.08 0 63.43 28.46 63.43 63.54 0 34.96-28.35 63.43-63.43 63.43s-63.43-28.46-63.43-63.43c.01-35.08 28.35-63.54 63.43-63.54z" fill="#f3809b"/><path d="m417.89 483.68c35.08 0 63.43-28.46 63.43-63.54 0-34.96-28.35-63.43-63.43-63.43s-63.43 28.46-63.43 63.43c.01 35.07 28.35 63.54 63.43 63.54z" fill="#d4e27d"/></g><path d="m116.71 147.3h30.35c6.5 0 11.69 5.31 11.69 11.81 0 10.87-.94 6.85 14.06 13.94 3.43 1.65 6.02-2.01 8.62-4.61 4.49-4.61 11.93-4.61 16.54 0l21.5 21.38c4.61 4.61 4.61 12.05 0 16.65-6.97 6.97-5.79 5.2-2.13 14.17 3.66 8.86 1.65 8.39 11.46 8.39 3.31 0 6.14 1.42 8.27 3.54h.12c2.13 2.13 3.43 5.08 3.43 8.27v30.35c0 6.5-5.31 11.69-11.81 11.69-10.87 0-6.97-.94-13.94 14.06-1.65 3.43 2.01 5.91 4.61 8.62 4.61 4.49 4.61 11.93 0 16.54l-22.2 22.09c-10.98 9.09-18.31-4.96-21.97-5.55-2.13-.35-5.08 1.65-8.03 2.83-8.86 3.66-8.5 1.65-8.5 11.46 0 3.19-1.3 6.14-3.43 8.27-2.13 2.13-5.08 3.54-8.27 3.54h-30.35c-6.5 0-11.69-5.31-11.69-11.81 0-10.87.94-6.97-14.06-13.94-3.43-1.65-5.91 2.01-8.62 4.61-4.49 4.61-11.93 4.61-16.54 0l-21.5-21.5c-4.61-4.49-4.61-11.93 0-16.54 6.97-7.09 5.79-5.31 2.13-14.17-3.66-8.86-1.65-8.5-11.46-8.5-3.31 0-6.14-1.3-8.27-3.43h-.12c-2.13-2.13-3.43-5.08-3.43-8.27v-30.35c0-6.5 5.31-11.81 11.81-11.81 10.87 0 6.97 1.06 13.94-13.94 1.65-3.43-2.01-6.02-4.61-8.62-4.61-4.61-4.61-11.93 0-16.54v-.12l22.09-21.97c10.98-9.09 18.54 4.96 22.09 5.55l15.71-6.5c2.36-3.31-1.77-10.16 4.25-16.18 2.12-2.11 5.07-3.41 8.26-3.41zm293.5-87.99c0-9.92 15.12-9.92 15.12 0v32.48c0 9.92-15.12 9.92-15.12 0zm0 55.86c0-9.92 15.12-9.92 15.12 0 0 4.25.83 12.76-7.56 12.76-8.27 0-7.56-8.5-7.56-12.76zm13 110.32c0-9.92 15-9.92 15 0v32.48c0 9.92-15 9.92-15 0zm0 55.87c0-9.92 15-9.92 15 0 0 4.25.83 12.64-7.44 12.64-8.39-.01-7.56-8.39-7.56-12.64zm-25.87-55.87c0-9.92 15.12-9.92 15.12 0v32.48c0 9.92-15.12 9.92-15.12 0zm0 55.87c0-9.92 15.12-9.92 15.12 0 0 4.25.71 12.64-7.56 12.64s-7.56-8.39-7.56-12.64zm38.74 110.31c0-9.92 15.12-9.92 15.12 0v32.48c0 9.92-15.12 9.92-15.12 0zm0 55.87c0-9.92 15.12-9.92 15.12 0 0 4.25.71 12.64-7.56 12.64-8.27-.01-7.56-8.39-7.56-12.64zm-25.87-55.87c0-9.92 15.12-9.92 15.12 0v32.48c0 9.92-15.12 9.92-15.12 0zm0 55.87c0-9.92 15.12-9.92 15.12 0 0 4.25.83 12.64-7.56 12.64-8.27-.01-7.56-8.39-7.56-12.64zm-25.74-55.87c0-9.92 15-9.92 15 0v32.48c0 9.92-15 9.92-15 0zm0 55.87c0-9.92 15-9.92 15 0 0 4.25.83 12.64-7.56 12.64-8.27-.01-7.44-8.39-7.44-12.64zm-118.47-183.9c-9.92 0-9.92-15.12 0-15.12h20.55v-137.24c0-28.94 40.04-39.8 40.04-23.5 0 4.13-3.31 7.44-7.44 7.44-9.33 0-17.48 6.97-17.48 16.06v137.24h19.13c9.92 0 9.92 15.12 0 15.12h-19.13v137.13c0 9.09 8.15 15.94 17.48 15.94 9.92 0 9.92 15.12 0 15.12-17.6 0-32.6-13.58-32.6-31.06v-137.13zm151.77 214.49c49.72 0 74.76-60.35 39.57-95.55-35.08-35.08-95.43-10.04-95.43 39.57 0 30.94 25.04 55.98 55.86 55.98zm50.2-5.79c-44.53 44.65-121.18 12.87-121.18-50.2s76.65-94.84 121.18-50.2c27.76 27.76 27.76 72.76 0 100.4zm-50.2-453.54c63.07 0 94.84 76.65 50.2 121.3-44.53 44.53-121.18 12.76-121.18-50.2 0-39.21 31.77-71.1 70.98-71.1zm39.57 31.53c-35.08-35.2-95.43-10.16-95.43 39.57 0 49.61 60.35 74.65 95.43 39.45 21.85-21.74 21.85-57.17 0-79.02zm-39.57 134.65c63.07 0 94.84 76.65 50.2 121.18-44.53 44.65-121.18 12.87-121.18-50.2 0-39.21 31.77-70.98 70.98-70.98zm39.57 31.53c-35.08-35.2-95.43-10.16-95.43 39.45 0 49.72 60.35 74.76 95.43 39.57 21.85-21.85 21.85-57.29 0-79.02zm-333.07 9.45c0-9.92 15.12-9.92 15.12 0v27.05l13.7 15c6.61 7.2-4.49 17.36-11.1 10.04l-15.24-16.65c-1.54-1.3-2.48-3.31-2.48-5.55zm7.68-31.42c54.57 0 82.09 66.26 43.46 105-38.74 38.62-105 11.1-105-43.58 0-33.9 27.52-61.42 61.54-61.42zm32.83 28.59c-29.17-29.17-79.37-8.39-79.37 32.83 0 41.34 50.2 62.01 79.37 32.83 18.07-18.06 18.07-47.47 0-65.66zm-21.02-60.71h-23.74c0 18.31-12.05 19.02-22.2 23.98-8.86 4.37-17.01 1.77-23.74-4.96l-16.78 16.77c12.99 12.99 4.96 21.97 1.3 32.72-3.19 9.33-10.87 13.23-20.31 13.23v23.74c9.45 0 17.13 3.9 20.31 13.23.47 1.54 1.06 3.07 1.65 4.49 2.36 5.79 5.08 9.21 3.9 16.3-.94 5.31-3.19 8.27-6.85 11.93l16.77 16.77c12.99-12.99 21.97-4.96 32.72-1.3 9.33 3.19 13.23 10.87 13.23 20.31h23.74c0-9.45 3.9-17.13 13.23-20.31 1.54-.47 3.07-1.06 4.49-1.77l.12.12c5.67-2.36 9.09-5.08 16.18-3.9 5.31.95 8.27 3.19 11.93 6.85l16.77-16.77c-12.99-12.99-4.96-21.97-1.3-32.72 3.19-9.33 10.87-13.23 20.31-13.23v-23.74c-9.45 0-17.13-3.9-20.31-13.23-.47-1.54-1.06-3.07-1.65-4.61-2.36-5.67-4.96-9.09-3.9-16.18.94-5.31 3.19-8.27 6.85-11.93l-16.77-16.77c-12.99 12.99-21.97 4.96-32.72 1.3-9.34-3.2-13.23-10.87-13.23-20.32z"/></g></svg>